<svg id="Capa_1" enable-background="new 0 0 512 512" height="512" viewBox="0 0 512 512" width="512" fill="#101727" xmlns="http://www.w3.org/2000/svg"><g><g><path d="m171.899 47.393h-86.153c-4.143 0-7.5 3.358-7.5 7.5s3.357 7.5 7.5 7.5h86.153c4.143 0 7.5-3.358 7.5-7.5s-3.357-7.5-7.5-7.5z"/><path d="m171.899 82h-86.153c-4.143 0-7.5 3.358-7.5 7.5s3.357 7.5 7.5 7.5h86.153c4.143 0 7.5-3.358 7.5-7.5s-3.357-7.5-7.5-7.5z"/><path d="m349.128 358.265c2.534-15.954-6.396-29.78-22.75-35.224-2.205-.734-4.46-1.504-6.71-2.305v-33.432c5.942 1.28 9.479 4.109 9.773 4.352 3.129 2.667 7.827 2.32 10.527-.79 2.717-3.127 2.383-7.864-.744-10.581-.431-.374-7.692-6.535-19.557-8.197v-2.512c0-4.142-3.357-7.5-7.5-7.5s-7.5 3.358-7.5 7.5v3.055c-1.128.233-2.272.502-3.441.834-11.122 3.155-19.326 12.234-21.41 23.693-1.842 10.129 1.672 19.863 9.171 25.402 3.974 2.935 8.917 5.625 15.681 8.465v42.524c-6.079-.394-10.226-1.754-17.069-5.97-3.526-2.173-8.147-1.076-10.319 2.451-2.173 3.527-1.075 8.147 2.452 10.319 9.725 5.991 16.356 7.764 24.937 8.211v3.347c0 4.142 3.357 7.5 7.5 7.5s7.5-3.358 7.5-7.5v-3.932c16.779-3.187 27.368-16.546 29.459-29.71zm-51.229-47.769c-3.421-2.526-3.961-7.159-3.325-10.652.797-4.383 3.874-9.675 10.094-11.733v26.425c-2.555-1.288-4.863-2.633-6.769-4.04zm36.414 45.416c-1.069 6.734-6.023 13.88-14.646 16.613v-35.916c.652.221 1.297.44 1.972.665 9.299 3.095 14.037 10.062 12.674 18.638z"/><path d="m464.46 224.411h-303.217c-12.087 0-21.92 9.833-21.92 21.92v168.823c0 12.087 9.833 21.92 21.92 21.92h303.217c12.087 0 21.921-9.833 21.921-21.92v-168.823c0-12.087-9.834-21.92-21.921-21.92zm6.921 190.743c0 3.816-3.104 6.92-6.921 6.92h-303.217c-3.815 0-6.92-3.104-6.92-6.92v-168.823c0-3.815 3.104-6.92 6.92-6.92h303.217c3.816 0 6.921 3.104 6.921 6.92z"/><path d="m276.983 395.971h-77.362c-4.889-7.655-11.517-14.259-19.194-19.124v-92.422c7.605-4.818 14.188-11.349 19.061-18.912h77.475c4.143 0 7.5-3.358 7.5-7.5s-3.357-7.5-7.5-7.5h-77.645c-5.04 0-9.651 2.511-12.337 6.716-3.744 5.864-8.84 10.92-14.737 14.622-4.269 2.679-6.816 7.315-6.816 12.401v92.766c0 5.087 2.547 9.722 6.813 12.398 5.953 3.738 11.086 8.851 14.843 14.789 2.681 4.236 7.305 6.765 12.368 6.765h77.533c4.143 0 7.5-3.358 7.5-7.5s-3.359-7.499-7.502-7.499z"/><path d="m453.554 271.667c-5.762-3.68-10.751-8.669-14.43-14.43-2.688-4.21-7.302-6.724-12.341-6.724h-79.457c-4.143 0-7.5 3.358-7.5 7.5s3.357 7.5 7.5 7.5h79.286c4.786 7.431 11.232 13.876 18.665 18.665v92.915c-7.502 4.833-13.995 11.353-18.799 18.877h-79.131c-4.143 0-7.5 3.358-7.5 7.5s3.357 7.5 7.5 7.5h79.302c5.063 0 9.688-2.532 12.374-6.773 3.691-5.834 8.718-10.881 14.533-14.594 4.208-2.687 6.721-7.3 6.721-12.34v-93.255c0-5.039-2.513-9.653-6.723-12.341z"/><path d="m413.917 457.334c-4.143 0-7.5 3.358-7.5 7.5v6.268c0 14.28-11.617 25.898-25.897 25.898h-314.002c-14.28 0-25.898-11.618-25.898-25.898v-430.205c-.001-14.279 11.617-25.897 25.898-25.897h244.414c1.01 0 2.003.101 2.979.265v51.343c0 22.551 18.347 40.897 40.897 40.897h51.343c.164.977.265 1.97.265 2.98v86.197c0 4.142 3.357 7.5 7.5 7.5s7.5-3.358 7.5-7.5v-86.197c0-8.762-3.412-16.999-9.606-23.194l-77.685-77.683c-6.194-6.196-14.432-9.608-23.193-9.608h-244.414c-22.552 0-40.899 18.347-40.899 40.897v430.205c0 22.551 18.347 40.898 40.898 40.898h314.003c22.551 0 40.897-18.347 40.897-40.898v-6.268c0-4.142-3.357-7.5-7.5-7.5zm-18.106-364.828h-41.002c-14.28 0-25.897-11.618-25.897-25.897v-41.002z"/></g></g></svg>